<?xml version="1.0" encoding="UTF-8"?><svg xmlns="http://www.w3.org/2000/svg" viewBox="0 0 370 383"><defs><style>.d{fill:#f4b000;}.e{fill:#23a80a;}.f{fill:#b40000;}</style></defs><g id="a"/><g id="b"><g id="c"><g><circle class="f" cx="17.5" cy="98.5" r="17.38"/><path d="M17.5,81.25c9.51,0,17.25,7.74,17.25,17.25s-7.74,17.25-17.25,17.25S.25,108.01,.25,98.5s7.74-17.25,17.25-17.25m0-.25c-9.66,0-17.5,7.84-17.5,17.5s7.84,17.5,17.5,17.5,17.5-7.84,17.5-17.5-7.84-17.5-17.5-17.5h0Z"/></g><g><circle class="f" cx="89.5" cy="133.5" r="29.37"/><path d="M89.5,104.25c16.13,0,29.25,13.12,29.25,29.25s-13.12,29.25-29.25,29.25-29.25-13.12-29.25-29.25,13.12-29.25,29.25-29.25m0-.25c-16.29,0-29.5,13.21-29.5,29.5s13.21,29.5,29.5,29.5,29.5-13.21,29.5-29.5-13.21-29.5-29.5-29.5h0Z"/></g><g><circle class="f" cx="38" cy="238" r="33.88"/><path d="M38,204.25c18.61,0,33.75,15.14,33.75,33.75s-15.14,33.75-33.75,33.75-33.75-15.14-33.75-33.75,15.14-33.75,33.75-33.75m0-.25c-18.78,0-34,15.22-34,34s15.22,34,34,34,34-15.22,34-34-15.22-34-34-34h0Z"/></g><g><circle class="f" cx="148.5" cy="43.5" r="27.37"/><path d="M148.5,16.25c15.03,0,27.25,12.22,27.25,27.25s-12.22,27.25-27.25,27.25-27.25-12.22-27.25-27.25,12.22-27.25,27.25-27.25m0-.25c-15.19,0-27.5,12.31-27.5,27.5s12.31,27.5,27.5,27.5,27.5-12.31,27.5-27.5-12.31-27.5-27.5-27.5h0Z"/></g><g><circle class="f" cx="42.5" cy="27.5" r="27.37"/><path d="M42.5,.25c15.03,0,27.25,12.22,27.25,27.25s-12.22,27.25-27.25,27.25S15.25,42.53,15.25,27.5,27.47,.25,42.5,.25m0-.25C27.31,0,15,12.31,15,27.5s12.31,27.5,27.5,27.5,27.5-12.31,27.5-27.5S57.69,0,42.5,0h0Z"/></g><g><circle class="d" cx="206.5" cy="102.5" r="23.37"/><path d="M206.5,79.25c12.82,0,23.25,10.43,23.25,23.25s-10.43,23.25-23.25,23.25-23.25-10.43-23.25-23.25,10.43-23.25,23.25-23.25m0-.25c-12.98,0-23.5,10.52-23.5,23.5s10.52,23.5,23.5,23.5,23.5-10.52,23.5-23.5-10.52-23.5-23.5-23.5h0Z"/></g><g><circle class="d" cx="286" cy="170" r="40.88"/><path d="M286,129.25c22.47,0,40.75,18.28,40.75,40.75s-18.28,40.75-40.75,40.75-40.75-18.28-40.75-40.75,18.28-40.75,40.75-40.75m0-.25c-22.64,0-41,18.36-41,41s18.36,41,41,41,41-18.36,41-41-18.36-41-41-41h0Z"/></g><g><circle class="d" cx="341.5" cy="269.5" r="28.37"/><path d="M341.5,241.25c15.58,0,28.25,12.67,28.25,28.25s-12.67,28.25-28.25,28.25-28.25-12.67-28.25-28.25,12.67-28.25,28.25-28.25m0-.25c-15.74,0-28.5,12.76-28.5,28.5s12.76,28.5,28.5,28.5,28.5-12.76,28.5-28.5-12.76-28.5-28.5-28.5h0Z"/></g><g><circle class="d" cx="256.5" cy="332.5" r="36.38"/><path d="M256.5,296.25c19.99,0,36.25,16.26,36.25,36.25s-16.26,36.25-36.25,36.25-36.25-16.26-36.25-36.25,16.26-36.25,36.25-36.25m0-.25c-20.16,0-36.5,16.34-36.5,36.5s16.34,36.5,36.5,36.5,36.5-16.34,36.5-36.5-16.34-36.5-36.5-36.5h0Z"/></g><g><circle class="d" cx="231.5" cy="32.5" r="19.38"/><path d="M231.5,13.25c10.61,0,19.25,8.64,19.25,19.25s-8.64,19.25-19.25,19.25-19.25-8.64-19.25-19.25,8.64-19.25,19.25-19.25m0-.25c-10.77,0-19.5,8.73-19.5,19.5s8.73,19.5,19.5,19.5,19.5-8.73,19.5-19.5-8.73-19.5-19.5-19.5h0Z"/></g><g><circle class="f" cx="116" cy="330" r="52.87"/><path d="M116,277.25c29.09,0,52.75,23.66,52.75,52.75s-23.66,52.75-52.75,52.75-52.75-23.66-52.75-52.75,23.66-52.75,52.75-52.75m0-.25c-29.27,0-53,23.73-53,53s23.73,53,53,53,53-23.73,53-53-23.73-53-53-53h0Z"/></g><g><circle class="e" cx="307" cy="74" r="6.87"/><path d="M307,67.25c3.72,0,6.75,3.03,6.75,6.75s-3.03,6.75-6.75,6.75-6.75-3.03-6.75-6.75,3.03-6.75,6.75-6.75m0-.25c-3.87,0-7,3.13-7,7s3.13,7,7,7,7-3.13,7-7-3.13-7-7-7h0Z"/></g><g><circle class="f" cx="164" cy="209" r="33.88"/><path d="M164,175.25c18.61,0,33.75,15.14,33.75,33.75s-15.14,33.75-33.75,33.75-33.75-15.14-33.75-33.75,15.14-33.75,33.75-33.75m0-.25c-18.78,0-34,15.22-34,34s15.22,34,34,34,34-15.22,34-34-15.22-34-34-34h0Z"/></g></g></g></svg>